<?xml version="1.0" encoding="UTF-8"?>
<svg id="Layer_2" data-name="Layer 2" xmlns="http://www.w3.org/2000/svg" viewBox="0 0 267.46 261.22">
  <g id="Layer_1-2" data-name="Layer 1">
    <g>
      <path d="M267.46,42.85v175.51c-3.75,25.51-22.14,41.54-47.77,42.86H47.28C21.79,259.82,3.05,243.05.03,217.57l-.03-172.91C2.24,19.18,21.36,1.43,46.75,0h173.98c23.49.48,44.55,19.29,46.73,42.85ZM33.72,183.89h22.98l9.19-27.63,40.97-.09,10.43,27.72h25.07l-41.24-116.52-30.06.04-.65,6.92-37.4,108.37c-.19.42.44,1.12.71,1.2ZM173.44,146.28h49.88c.21,0,3.78-.54,4.08-.62.38-.1.68-.34.94-.63,5.5-29.6-9.6-53.44-41.57-50.97-32.71,2.53-45.95,40.35-34.31,67.73,10,23.54,35.3,27.61,58.18,23,3.56-.72,7.83-1.82,10.86-3.76v-19.59c-17.02,5.86-44.56,8.3-48.06-15.15Z"/>
      <polygon points="100.84 134.26 72.63 134.26 86.47 88.29 100.84 134.26"/>
      <path d="M173.44,129.56c1.45-20.77,31.86-22.49,32.4-.88-.11.35-1.18.88-1.32.88h-31.08Z"/>
    </g>
  </g>
</svg>