<?xml version="1.0" encoding="UTF-8"?>
<svg id="Layer_2" data-name="Layer 2" xmlns="http://www.w3.org/2000/svg" viewBox="0 0 267.46 267.43">
  <g id="Layer_1-2" data-name="Layer 1">
    <g>
      <path d="M267.46,39.69v188.04c-.92,2.67-1.15,5.5-1.95,8.23-4.08,13.8-16.09,25.67-29.91,29.63-2.59.74-5.31.92-7.83,1.83H39.72C18.67,264.51,1.91,247.79.03,226.42l-.03-184.92C1.65,19.62,19.23,1.96,41.03,0h185.42c20.58,1.55,38.92,19.07,41.01,39.69ZM72.63,57.97v156.18l77.07.02c22.05-1.26,46.52-9.56,51.19-33.96,4.13-21.57-4.74-45.9-28.49-49.65,2.59-2.16,5.71-3.31,8.52-5.31,13.49-9.6,16.68-26.73,11.99-42.09-5.63-18.39-25.2-24.58-42.68-25.22l-77.59.02Z"/>
      <g>
        <path d="M99.79,191.69v-48.58h53.54c1.88,0,7.36,1.85,9.25,2.76,15.73,7.63,16.08,33.52,1.28,42.25-2,1.18-7.9,3.57-10.01,3.57h-54.06Z"/>
        <path d="M99.79,123.27v-42.83h49.88c2.9,0,9.01,2.46,11.4,4.27,8.03,6.06,8.42,22.79,2.43,30.45-2.45,3.13-9.93,8.11-13.83,8.11h-49.88Z"/>
      </g>
    </g>
  </g>
</svg>