<?xml version="1.0" encoding="UTF-8"?>
<svg id="Layer_2" data-name="Layer 2" xmlns="http://www.w3.org/2000/svg" viewBox="0 0 177.13 254.92">
  <g id="Layer_1-2" data-name="Layer 1">
    <path d="M99.45,169.17v42.26c0,1.39-1.45,6.23-1.94,7.91-8.76,30.24-44.03,44.71-71.7,29.43-31-17.12-34.6-60.24-7.26-82.45-24.56-19.08-24.55-58.2,0-77.26C9.06,81.21,2.22,69.71.47,57.37-3.42,29.85,17.12,2.66,45.25.63c27.83-2.01,58.03,1.56,86.12,0,44.48,3.7,61.95,60.18,27.21,88.43,7.02,5.4,12.65,13.39,15.55,21.77,15.89,45.76-34.48,84.23-74.67,58.34ZM77.67,77.91V23.21l-.78-.78h-29.04c-15.15,0-27.05,16.3-25.6,30.79,1.09,10.93,12.54,24.69,24.05,24.69h31.37ZM99.45,77.91h31.37c11.51,0,22.99-13.75,24.05-24.69,1.4-14.48-10.44-30.79-25.6-30.79h-29.04l-.78.78v54.7ZM77.67,100.21h-32.41c-12.92,0-23.55,16.78-23.1,28.8.41,10.92,11.48,26.16,23.1,26.16h32.41v-54.96ZM122.66,100.34c-10.79,1.37-20.32,11.15-22.46,21.62-4.68,23.01,19.76,41.49,40.37,30,26.59-14.83,13.77-55.64-17.91-51.62ZM77.67,177.46h-31.37c-6.51,0-16.16,7.14-19.66,12.49-14.84,22.69,8.37,50.84,33.91,40.65,8.75-3.49,17.12-14.16,17.12-23.84v-29.3Z"/>
  </g>
</svg>