<?xml version="1.0" encoding="UTF-8"?>
<svg id="Layer_2" data-name="Layer 2" xmlns="http://www.w3.org/2000/svg" viewBox="0 0 267.28 256.3">
  <g id="Layer_1-2" data-name="Layer 1">
    <path d="M0,123.06C7.95,19.3,127.6-35.51,212.76,25.48c81.98,58.72,69.09,183.57-22.44,224.96-5.25,2.38-21.67,10.65-23.57,1.26-1-13.73.96-28.53-.19-42.12-.63-7.47-3.46-14.89-8.81-20.17,21.99-1.96,43.62-9.53,54-30.36,6.69-13.44,8.95-35.17,4.76-49.56-2.19-7.5-6.39-14.33-11.57-20.1,4.14-11.14,2.97-23.75-1.33-34.64-2.52-1.84-13.6,1.47-16.74,2.62-7.14,2.63-13.56,6.83-20.04,10.71-21.84-5.91-44.87-5.75-66.72,0-6.52-4.07-13.16-8.21-20.44-10.84-2.69-.97-14.87-4.59-16.52-2.28-.54.76-1.9,5.79-2.21,7.08-2.12,8.93-2.24,18.61,1.13,27.25-14.19,15.02-15.86,35.75-11.76,55.28,6.3,30.08,30.16,42.34,58.86,45.08-2.22,2.07-4.21,4.8-5.5,7.56-1.61,3.45-1.81,6.96-3.4,10.18-9.9,4.31-21.93,4.83-30.76-2.12-5.91-4.64-8.4-11.89-14.14-16.68-4.05-3.38-14.12-8.29-19.03-4.91-4.02,2.77,6.56,8.38,8.3,9.9,9.22,8.03,9.85,20.25,19.07,27.94,9.96,8.3,24.41,8.86,36.57,6,.02,6.01,0,12.03-.02,18.04,0,2.78,1.06,4.64-.56,7.75-3.29,6.31-13.97.96-18.72-1C35.45,233.59,2.88,188.52,0,139.25v-16.19Z"/>
  </g>
</svg>