<?xml version="1.0" encoding="UTF-8"?>
<svg id="Layer_2" data-name="Layer 2" xmlns="http://www.w3.org/2000/svg" viewBox="0 0 267.46 261.3">
  <g id="Layer_1-2" data-name="Layer 1">
    <g>
      <path d="M267.46,42.94v175.51c-3.75,25.51-22.14,41.54-47.77,42.86H47.28C21.77,259.9,3.04,243.17.03,217.66l-.03-172.91C2.24,19.22,21.33,1.51,46.75.09c60.19.48,120.49-.86,180.61.69,20.77,3.12,38.16,21.15,40.1,42.17ZM187.42,58.22c-17.27,2.26-15.24,29.11,2.98,28.08,18.02-1.02,17.16-30.71-2.98-28.08ZM56.18,184.49h22.46l9.64-27.44h41.31s10.16,27.44,10.16,27.44h24.55c.22,0,.88-.83.78-1.27l-41.23-116.02-30.61.25-1.12,9.33-36.74,106.4c0,.47.42,1.19.8,1.3ZM177.1,184.49h23.77l.78-.78v-87.23l-.78-.78h-23.51l-.78.78v86.71c0,.17.69.79.52,1.31Z"/>
      <polygon points="122.78 134.35 95.35 134.35 94.78 133.27 108.16 87.86 122.78 134.35"/>
    </g>
  </g>
</svg>