<?xml version="1.0" encoding="UTF-8"?>
<svg id="Layer_2" data-name="Layer 2" xmlns="http://www.w3.org/2000/svg" viewBox="0 0 267.46 261.3">
  <g id="Layer_1-2" data-name="Layer 1">
    <g>
      <path d="M267.46,42.94v175.51c-3.75,25.51-22.14,41.54-47.77,42.86H47.28C21.77,259.9,3.04,243.17.03,217.66l-.03-172.91C2.24,19.22,21.33,1.51,46.75.09c60.19.48,120.49-.86,180.61.69,20.77,3.12,38.16,21.15,40.1,42.17ZM84.12,147.41c12.94.13,25.86.63,37.96-4.61,30.41-13.18,29.87-59.11-.88-71.9-14.16-5.89-38.09-4.78-53.55-3.95-2.18.12-5.83.41-7.55,1.33v115.44l.78.78h23.24v-37.09ZM156.21,160.21v20.37c2.02,2.05,5.03,2.99,7.72,3.77,22.48,6.52,59.35,2.64,57.07-28.34-1.52-20.61-23.42-21.73-36.74-30.12-3.37-2.12-6.97-6.41-2.65-9.75,4.86-3.76,19.77-1.29,25.54.44,1.7.51,7.68,3.49,8.61,2.92.87-.54.98-2.19,1.06-3.14.24-2.63.27-16.57-.81-18.04-.76-1.04-8.3-2.81-9.99-3.07-16.85-2.62-40.78-1.48-47.73,17.42-5.72,15.55,2.4,26.87,15.67,33.97,4.89,2.62,21.24,7.52,22.76,12.24,1.9,5.89-5.13,7.52-9.44,7.86-9.77.77-21.3-2.63-29.78-7.32l-1.3.8Z"/>
      <path d="M84.64,126.51v-37.61c11.5-.9,29.52-1.89,34.36,11.35,5.35,14.64-6.03,26.26-20.51,26.26h-13.84Z"/>
    </g>
  </g>
</svg>