<?xml version="1.0" encoding="UTF-8"?>
<svg id="Layer_2" data-name="Layer 2" xmlns="http://www.w3.org/2000/svg" viewBox="0 0 267.46 261.29">
  <g id="Layer_1-2" data-name="Layer 1">
    <g>
      <path d="M0,218.89V42.33C3.95,17.49,22.13,1.32,47.25,0h173.46c25.6,1.44,44.84,19.43,46.75,45.18l-.03,171.87c-2.66,25.72-21.61,42.76-47.24,44.17-59.69-.43-119.49.76-179.12-.61-20.87-2.49-38.94-20.7-41.07-41.72ZM87.75,147.33c23.8,1.45,52.34-2.61,58.87-29.67,6.14-25.43-8.86-46.18-34.14-50.17-7.13-1.13-12.32-.61-19.22-.58-9.86.03-19.71-.28-29.53.5v117h23.24l.78-.78v-36.3ZM183.6,95.09h-21.15l1.31,89.32h24.29v-58.24c5.19-5.12,13.51-7.34,20.64-8.09,1.53-.16,8.61.66,8.61-1.31v-21.94c0-.14-.54-1.22-.88-1.32-11.81-.94-22.03,5.52-29.93,13.6.28-2.28-.51-11.34-2.88-12.01Z"/>
      <path d="M87.75,88.82c11.41-.89,30.32-2.11,34.72,11.51,2.91,8.99.08,18.92-8.77,23.07-2.23,1.05-9.84,3.03-12.11,3.03h-13.06l-.78-.78v-36.83Z"/>
    </g>
  </g>
</svg>