<?xml version="1.0" encoding="UTF-8"?>
<svg id="Layer_2" data-name="Layer 2" xmlns="http://www.w3.org/2000/svg" viewBox="0 0 242.29 267.49">
  <defs>
    <style>
      .cls-1 {
        fill: #fff;
      }
    </style>
  </defs>
  <g id="Layer_1-2" data-name="Layer 1">
    <g>
      <path d="M117.49,267.33c-1.57-.18-4.79-1.14-6.4-1.69-19.41-6.64-31.78-32.26-37.48-50.52-21.24,4.78-56.28,6.97-69.16-14.66-13.57-22.78,6.91-51.52,21.46-68.6C11.61,114.71-7.56,85.19,8.41,63.56c9.83-13.32,28.58-15.67,44.07-15.51l21.61,2.58C80.82,29.84,96.82-.96,122.48.02c23.91.91,39.36,30.75,45.72,50.61,21.33-3.71,54.96-6.1,67.56,15.75,12.45,21.61-5.73,48.97-19.37,65.48,14.54,17.08,35.03,45.84,21.46,68.6-12.88,21.62-47.93,19.44-69.16,14.66-5.75,18.27-18.02,43.87-37.48,50.52-1.62.55-4.83,1.52-6.4,1.69-1.8.2-5.51.2-7.31,0ZM153.01,54.86c-3.74-12.68-16.16-38.95-31.6-39.19s-28.26,26.18-32.14,38.92c10.84,2.88,21.31,6.93,31.65,11.23,10.64-3.76,20.98-8.77,32.09-10.96ZM69.44,65.83c-21.72-3.9-61.13-5.66-48.97,28.32,3.47,9.7,10.28,18.69,16.84,26.49,8.06-8.05,17.23-14.82,26.11-21.92,1.47-11.06,3.27-22.08,6.01-32.88ZM172.86,65.83c2.74,10.81,4.55,21.82,6.01,32.88,8.92,7.04,18.07,13.85,26.11,21.92,12.01-13.44,33.33-45.79,5.6-54.66-12.06-3.86-25.45-1.98-37.72-.14ZM101.3,74.71l-16.71-5.23-3.66,17.75c5.87-4.44,13.78-7.28,19.68-11.36.46-.32.97.09.68-1.16ZM157.71,69.48c-4.59,1.83-11.86,2.81-16.04,5.1-.6.33-.88-.02-.66,1.16l20.36,11.49-3.66-17.75ZM120.97,83.17c-14.69,7.11-29.08,14.97-42.4,24.41-1.33,12.37-1.82,25.42-1.33,37.88.11,2.68.21,7.49.58,9.86.17,1.1.55,1.6,1.28,2.38,3.29,3.52,16.5,10.89,21.32,13.67,2.58,1.48,19.54,10.87,20.9,10.76,11.36-5.56,22.62-11.54,33.21-18.46,1.93-1.27,8.18-4.99,9.17-6.5,1.45-2.24.64-5.89.81-8.59.72-11.61,1.02-24.39-.01-36.02-.1-1.1-.53-4.59-1-5.27-.5-.72-7.07-4.78-8.44-5.66-10.83-6.99-22.4-13.03-34.08-18.46ZM61.6,144.13v-24.01c-1.75,1.4-13.73,11.13-13.54,12.2l13.54,11.82ZM180.7,144.13l13.54-11.82c.21-1.2-11.79-10.73-13.54-12.2v24.01ZM68.92,200.51l-6.03-34.95-26.02-21.91c-11.96,12.71-35.58,46.49-8.96,56.35,12.85,4.76,27.8,2.09,41.02.51ZM173.38,200.51c18.31,3.01,59,7.26,52.42-22.89-2.72-12.47-12.13-24.57-20.36-33.98l-26.01,21.92-6.05,34.94ZM102.34,190.08l-21.93-12.54,3.65,18.8,18.27-6.26ZM158.23,196.34l3.65-18.8-21.93,12.54,18.27,6.26ZM120.97,199.62l-32.17,12.15c6.43,19.57,25.42,57.03,48.53,30.75,7.65-8.7,12.2-20,16.16-30.74-.19-.74-12.38-4.28-14.33-4.99-6.12-2.24-12.04-5.02-18.19-7.17Z"/>
      <path class="cls-1" d="M116.84,109.81c-28.79,3.91-25.68,51.76,8.17,47.84,29.33-3.4,26.25-52.51-8.17-47.84Z"/>
      <path d="M116.84,109.81c34.42-4.68,37.49,44.44,8.17,47.84-33.85,3.92-36.95-43.92-8.17-47.84Z"/>
    </g>
  </g>
</svg>